<?xml version="1.0" encoding="UTF-8" standalone="no"?>
<!DOCTYPE svg PUBLIC "-//W3C//DTD SVG 1.1//EN" "http://www.w3.org/Graphics/SVG/1.1/DTD/svg11.dtd">
<!-- Generated by graphviz version 2.40.1 (20161225.0304)
 -->
<!-- Title: neuroscience Pages: 1 -->
<svg width="985pt" height="489pt" viewBox="0.00 0.00 984.60 489.23" xmlns="http://www.w3.org/2000/svg" xmlns:xlink="http://www.w3.org/1999/xlink">
<g id="graph0" class="graph" transform="scale(1 1) rotate(0) translate(4 485.2313)">
<title>neuroscience</title>
<polygon fill="#ffffff" stroke="transparent" points="-4,4 -4,-485.2313 980.6019,-485.2313 980.6019,4 -4,4"/>
<!-- las -->
<g id="node1" class="node">
<title>las</title>
<polygon fill="none" stroke="#000000" points="458.0725,-481.2313 295.1425,-445.2313 458.0725,-409.2313 621.0025,-445.2313 458.0725,-481.2313"/>
<text text-anchor="start" x="386.1531" y="-447.6313" font-family="Times,serif" font-size="14.00" fill="#000000">link </text>
<text text-anchor="start" x="411.4343" y="-447.6313" font-family="Times,serif" font-size="14.00" fill="#ff0000">anatomical</text>
<text text-anchor="start" x="472.8551" y="-447.6313" font-family="Times,serif" font-size="14.00" fill="#000000"> structure</text>
<text text-anchor="start" x="384.59" y="-433.6313" font-family="Times,serif" font-size="14.00" fill="#000000">with </text>
<text text-anchor="start" x="412.9778" y="-433.6313" font-family="Times,serif" font-size="14.00" fill="#ff0000">functional</text>
<text text-anchor="start" x="469.7394" y="-433.6313" font-family="Times,serif" font-size="14.00" fill="#000000"> dynamics</text>
</g>
<!-- tract tracing -->
<g id="node2" class="node">
<title>tract tracing</title>
<polygon fill="none" stroke="#000000" points="499.8148,-372.2313 416.3301,-372.2313 416.3301,-336.2313 499.8148,-336.2313 499.8148,-372.2313"/>
<text text-anchor="middle" x="458.0725" y="-350.0313" font-family="Times,serif" font-size="14.00" fill="#000000">tract tracing</text>
</g>
<!-- las&#45;&gt;tract tracing -->
<g id="edge1" class="edge">
<title>las-&gt;tract tracing</title>
<path fill="none" stroke="#000000" d="M458.0725,-409.0042C458.0725,-400.1523 458.0725,-390.8114 458.0725,-382.3997"/>
<polygon fill="#000000" stroke="#000000" points="461.5726,-382.3485 458.0725,-372.3485 454.5726,-382.3486 461.5726,-382.3485"/>
</g>
<!-- dMRI -->
<g id="node3" class="node">
<title>dMRI</title>
<ellipse fill="none" stroke="#000000" cx="377.0725" cy="-281.2313" rx="34.2084" ry="18"/>
<text text-anchor="middle" x="377.0725" y="-277.0313" font-family="Times,serif" font-size="14.00" fill="#000000">dMRI</text>
</g>
<!-- tract tracing&#45;&gt;dMRI -->
<g id="edge2" class="edge">
<title>tract tracing-&gt;dMRI</title>
<path fill="none" stroke="#000000" d="M438.05,-336.1863C427.1636,-326.3751 413.5984,-314.1497 402.0284,-303.7224"/>
<polygon fill="#000000" stroke="#000000" points="404.1662,-300.9374 394.3947,-296.8426 399.4799,-306.1373 404.1662,-300.9374"/>
</g>
<!-- probabilistic tractography -->
<g id="node5" class="node">
<title>probabilistic tractography</title>
<ellipse fill="none" stroke="#000000" cx="540.0725" cy="-281.2313" rx="110.5524" ry="18"/>
<text text-anchor="middle" x="540.0725" y="-277.0313" font-family="Times,serif" font-size="14.00" fill="#000000">probabilistic tractography</text>
</g>
<!-- tract tracing&#45;&gt;probabilistic tractography -->
<g id="edge4" class="edge">
<title>tract tracing-&gt;probabilistic tractography</title>
<path fill="none" stroke="#000000" d="M478.3422,-336.1863C488.5701,-327.081 501.1336,-315.8964 512.2507,-305.9994"/>
<polygon fill="#000000" stroke="#000000" points="514.8942,-308.3322 520.036,-299.0687 510.2396,-303.1038 514.8942,-308.3322"/>
</g>
<!-- HAVE PROBLEMS! -->
<g id="node4" class="node">
<title>HAVE PROBLEMS!</title>
<polygon fill="#ff0000" stroke="#000000" points="526.5003,-226.2313 389.6447,-226.2313 389.6447,-190.2313 526.5003,-190.2313 526.5003,-226.2313"/>
<text text-anchor="middle" x="458.0725" y="-204.0313" font-family="Times,serif" font-size="14.00" fill="#ffffff">HAVE PROBLEMS!</text>
</g>
<!-- dMRI&#45;&gt;HAVE PROBLEMS! -->
<g id="edge3" class="edge">
<title>dMRI-&gt;HAVE PROBLEMS!</title>
<path fill="none" stroke="#000000" d="M394.6483,-265.3914C405.1064,-255.9662 418.6053,-243.8005 430.4597,-233.1169"/>
<polygon fill="#000000" stroke="#000000" points="432.8786,-235.6486 437.9638,-226.3539 428.1923,-230.4487 432.8786,-235.6486"/>
</g>
<!-- too many steps and\ncomplicated procedure -->
<g id="node6" class="node">
<title>too many steps and\ncomplicated procedure</title>
<polygon fill="none" stroke="#000000" points="353.9583,-153.0332 210.1867,-153.0332 210.1867,-111.8294 353.9583,-111.8294 353.9583,-153.0332"/>
<text text-anchor="middle" x="282.0725" y="-136.6313" font-family="Times,serif" font-size="14.00" fill="#000000">too many steps and</text>
<text text-anchor="middle" x="282.0725" y="-119.8313" font-family="Times,serif" font-size="14.00" fill="#000000">complicated procedure</text>
</g>
<!-- HAVE PROBLEMS!&#45;&gt;too many steps and\ncomplicated procedure -->
<g id="edge6" class="edge">
<title>HAVE PROBLEMS!-&gt;too many steps and\ncomplicated procedure</title>
<path fill="none" stroke="#ff0000" stroke-width="2" d="M415.9161,-190.0753C393.0116,-180.2107 364.3585,-167.8703 339.4465,-157.1412"/>
<polygon fill="#ff0000" stroke="#ff0000" stroke-width="2" points="340.6706,-153.8576 330.1017,-153.1166 337.9016,-160.2867 340.6706,-153.8576"/>
</g>
<!-- potential errors -->
<g id="node7" class="node">
<title>potential errors</title>
<polygon fill="none" stroke="#000000" points="473.7052,-150.4313 372.4398,-150.4313 372.4398,-114.4313 473.7052,-114.4313 473.7052,-150.4313"/>
<text text-anchor="middle" x="423.0725" y="-128.2313" font-family="Times,serif" font-size="14.00" fill="#000000">potential errors</text>
</g>
<!-- HAVE PROBLEMS!&#45;&gt;potential errors -->
<g id="edge7" class="edge">
<title>HAVE PROBLEMS!-&gt;potential errors</title>
<path fill="none" stroke="#ff0000" stroke-width="2" d="M449.6,-189.8822C445.4298,-180.8509 440.3179,-169.7799 435.6983,-159.7753"/>
<polygon fill="#ff0000" stroke="#ff0000" stroke-width="2" points="438.8368,-158.223 431.467,-150.6114 432.4815,-161.1575 438.8368,-158.223"/>
</g>
<!-- need decisions -->
<g id="node8" class="node">
<title>need decisions</title>
<polygon fill="none" stroke="#000000" points="590.1013,-150.4313 492.0437,-150.4313 492.0437,-114.4313 590.1013,-114.4313 590.1013,-150.4313"/>
<text text-anchor="middle" x="541.0725" y="-128.2313" font-family="Times,serif" font-size="14.00" fill="#000000">need decisions</text>
</g>
<!-- HAVE PROBLEMS!&#45;&gt;need decisions -->
<g id="edge8" class="edge">
<title>HAVE PROBLEMS!-&gt;need decisions</title>
<path fill="none" stroke="#ff0000" stroke-width="2" d="M478.1645,-189.8822C488.7673,-180.1991 501.9376,-168.1714 513.4833,-157.6272"/>
<polygon fill="#ff0000" stroke="#ff0000" stroke-width="2" points="516.1417,-159.9394 521.1655,-150.6114 511.4212,-154.7705 516.1417,-159.9394"/>
</g>
<!-- fail to show all\nneuroanatomical pathways -->
<g id="node9" class="node">
<title>fail to show all\nneuroanatomical pathways</title>
<polygon fill="none" stroke="#000000" points="883.7398,-153.0332 718.4052,-153.0332 718.4052,-111.8294 883.7398,-111.8294 883.7398,-153.0332"/>
<text text-anchor="middle" x="801.0725" y="-136.6313" font-family="Times,serif" font-size="14.00" fill="#000000">fail to show all</text>
<text text-anchor="middle" x="801.0725" y="-119.8313" font-family="Times,serif" font-size="14.00" fill="#000000">neuroanatomical pathways</text>
</g>
<!-- HAVE PROBLEMS!&#45;&gt;fail to show all\nneuroanatomical pathways -->
<g id="edge9" class="edge">
<title>HAVE PROBLEMS!-&gt;fail to show all\nneuroanatomical pathways</title>
<path fill="none" stroke="#ff0000" stroke-width="2" d="M526.6593,-193.0742C578.8678,-181.5366 651.268,-165.5368 708.5934,-152.8684"/>
<polygon fill="#ff0000" stroke="#ff0000" stroke-width="2" points="709.3751,-156.2801 718.3842,-150.7047 707.8646,-149.445 709.3751,-156.2801"/>
</g>
<!-- probabilistic tractography&#45;&gt;HAVE PROBLEMS! -->
<g id="edge5" class="edge">
<title>probabilistic tractography-&gt;HAVE PROBLEMS!</title>
<path fill="none" stroke="#000000" d="M519.8028,-263.1863C509.6513,-254.149 497.1987,-243.0632 486.1434,-233.2212"/>
<polygon fill="#000000" stroke="#000000" points="488.1895,-230.3568 478.3932,-226.3216 483.535,-235.5851 488.1895,-230.3568"/>
</g>
<!-- local fiber\norientation modeling -->
<g id="node10" class="node">
<title>local fiber\norientation modeling</title>
<ellipse fill="none" stroke="#000000" cx="94.0725" cy="-29.4156" rx="94.145" ry="29.3315"/>
<text text-anchor="middle" x="94.0725" y="-33.6156" font-family="Times,serif" font-size="14.00" fill="#000000">local fiber</text>
<text text-anchor="middle" x="94.0725" y="-16.8156" font-family="Times,serif" font-size="14.00" fill="#000000">orientation modeling</text>
</g>
<!-- need decisions&#45;&gt;local fiber\norientation modeling -->
<g id="edge10" class="edge">
<title>need decisions-&gt;local fiber\norientation modeling</title>
<path fill="none" stroke="#000000" d="M492.5198,-114.3752C489.3398,-113.3925 486.171,-112.467 483.0725,-111.6313 420.6728,-94.8011 259.9946,-73.5888 197.0725,-58.8313 188.8741,-56.9085 180.3534,-54.7455 171.881,-52.4876"/>
<polygon fill="#000000" stroke="#000000" points="172.547,-49.0419 161.9795,-49.8021 170.7146,-55.7978 172.547,-49.0419"/>
</g>
<!-- integration\n&amp; propagation -->
<g id="node11" class="node">
<title>integration\n&amp; propagation</title>
<ellipse fill="none" stroke="#000000" cx="275.0725" cy="-29.4156" rx="68.5494" ry="29.3315"/>
<text text-anchor="middle" x="275.0725" y="-33.6156" font-family="Times,serif" font-size="14.00" fill="#000000">integration</text>
<text text-anchor="middle" x="275.0725" y="-16.8156" font-family="Times,serif" font-size="14.00" fill="#000000">&amp; propagation</text>
</g>
<!-- need decisions&#45;&gt;integration\n&amp; propagation -->
<g id="edge11" class="edge">
<title>need decisions-&gt;integration\n&amp; propagation</title>
<path fill="none" stroke="#000000" d="M494.4344,-114.3694C450.2934,-97.2746 383.7926,-71.5204 335.5855,-52.8509"/>
<polygon fill="#000000" stroke="#000000" points="336.7892,-49.5638 326.2001,-49.2162 334.2612,-56.0914 336.7892,-49.5638"/>
</g>
<!-- interpolation -->
<g id="node12" class="node">
<title>interpolation</title>
<ellipse fill="none" stroke="#000000" cx="422.0725" cy="-29.4156" rx="60.2711" ry="18"/>
<text text-anchor="middle" x="422.0725" y="-25.2156" font-family="Times,serif" font-size="14.00" fill="#000000">interpolation</text>
</g>
<!-- need decisions&#45;&gt;interpolation -->
<g id="edge12" class="edge">
<title>need decisions-&gt;interpolation</title>
<path fill="none" stroke="#000000" d="M520.0716,-114.2513C500.5471,-97.3494 471.3301,-72.0568 449.8768,-53.4852"/>
<polygon fill="#000000" stroke="#000000" points="451.9225,-50.6269 442.0711,-46.728 447.341,-55.9193 451.9225,-50.6269"/>
</g>
<!-- seeding -->
<g id="node13" class="node">
<title>seeding</title>
<ellipse fill="none" stroke="#000000" cx="541.0725" cy="-29.4156" rx="40.5693" ry="18"/>
<text text-anchor="middle" x="541.0725" y="-25.2156" font-family="Times,serif" font-size="14.00" fill="#000000">seeding</text>
</g>
<!-- need decisions&#45;&gt;seeding -->
<g id="edge13" class="edge">
<title>need decisions-&gt;seeding</title>
<path fill="none" stroke="#000000" d="M541.0725,-114.0142C541.0725,-98.4129 541.0725,-75.7877 541.0725,-57.8601"/>
<polygon fill="#000000" stroke="#000000" points="544.5726,-57.6733 541.0725,-47.6733 537.5726,-57.6734 544.5726,-57.6733"/>
</g>
<!-- masking -->
<g id="node14" class="node">
<title>masking</title>
<ellipse fill="none" stroke="#000000" cx="643.0725" cy="-29.4156" rx="43.5214" ry="18"/>
<text text-anchor="middle" x="643.0725" y="-25.2156" font-family="Times,serif" font-size="14.00" fill="#000000">masking</text>
</g>
<!-- need decisions&#45;&gt;masking -->
<g id="edge14" class="edge">
<title>need decisions-&gt;masking</title>
<path fill="none" stroke="#000000" d="M559.3081,-114.0142C575.9544,-97.2021 600.6768,-72.2335 618.9519,-53.7764"/>
<polygon fill="#000000" stroke="#000000" points="621.7982,-55.8763 626.3471,-46.3076 616.824,-50.9511 621.7982,-55.8763"/>
</g>
<!-- stopping\ncriteria -->
<g id="node15" class="node">
<title>stopping\ncriteria</title>
<ellipse fill="none" stroke="#000000" cx="750.0725" cy="-29.4156" rx="45.3292" ry="29.3315"/>
<text text-anchor="middle" x="750.0725" y="-33.6156" font-family="Times,serif" font-size="14.00" fill="#000000">stopping</text>
<text text-anchor="middle" x="750.0725" y="-16.8156" font-family="Times,serif" font-size="14.00" fill="#000000">criteria</text>
</g>
<!-- need decisions&#45;&gt;stopping\ncriteria -->
<g id="edge15" class="edge">
<title>need decisions-&gt;stopping\ncriteria</title>
<path fill="none" stroke="#000000" d="M580.543,-114.4245C612.044,-99.8775 657.1841,-78.6369 696.0725,-58.8313 699.408,-57.1325 702.8428,-55.3473 706.2871,-53.5312"/>
<polygon fill="#000000" stroke="#000000" points="708.1885,-56.4838 715.365,-48.6897 704.8944,-50.3073 708.1885,-56.4838"/>
</g>
<!-- mbe -->
<g id="node16" class="node">
<title>mbe</title>
<polygon fill="#0000ff" stroke="#000000" points="976.6313,-58.817 813.5137,-58.817 813.5137,-.0143 976.6313,-.0143 976.6313,-58.817"/>
<text text-anchor="middle" x="895.0725" y="-42.0156" font-family="Times,serif" font-size="14.00" fill="#ffffff">model-based estimates</text>
<text text-anchor="middle" x="895.0725" y="-25.2156" font-family="Times,serif" font-size="14.00" fill="#ffffff">of effective connectivity</text>
<text text-anchor="middle" x="895.0725" y="-8.4156" font-family="Times,serif" font-size="14.00" fill="#ffffff">(functional -&gt; anatomical)</text>
</g>
<!-- fail to show all\nneuroanatomical pathways&#45;&gt;mbe -->
<g id="edge16" class="edge">
<title>fail to show all\nneuroanatomical pathways-&gt;mbe</title>
<path fill="none" stroke="#0000ff" stroke-width="2" d="M820.0948,-111.5845C831.8811,-98.6678 847.3582,-81.7063 861.1882,-66.5498"/>
<polygon fill="#0000ff" stroke="#0000ff" stroke-width="2" points="864.087,-68.5656 868.242,-58.8195 858.9161,-63.8472 864.087,-68.5656"/>
<text text-anchor="start" x="850.0725" y="-81.0313" font-family="Times,serif" font-size="14.00" fill="#0000ff">Resolution</text>
</g>
</g>
</svg>